<svg xmlns:xlink="http://www.w3.org/1999/xlink" xmlns="http://www.w3.org/2000/svg" version="1.1" viewBox="0 0 120 120" height="120px"
     width="120px">
    <title>尽请期待</title>
    <defs>
        <rect height="120" width="120" y="0" x="0" id="path-1"></rect>
        <linearGradient id="linearGradient-3" y2="68.7342104%" x2="6.18703177%" y1="30.6849333%" x1="95.1756652%">
            <stop offset="57%" stop-color="#E9EBF0"></stop>
            <stop offset="100%" stop-color="#D1D3D8"></stop>
        </linearGradient>
        <linearGradient id="linearGradient-4" y2="50%" x2="99.9206349%" y1="50%" x1="0%">
            <stop offset="27%" stop-color="#E5E5E5"></stop>
            <stop offset="89%" stop-color="#C6C7CE"></stop>
            <stop offset="89%" stop-color="#C6C7CE"></stop>
            <stop offset="100%" stop-color="#E5E5E5"></stop>
        </linearGradient>
        <linearGradient id="linearGradient-5" y2="50%" x2="99.9100719%" y1="50%" x1="0%">
            <stop offset="27%" stop-color="#E5E5E5"></stop>
            <stop offset="89%" stop-color="#C6C7CE"></stop>
            <stop offset="89%" stop-color="#C6C7CE"></stop>
            <stop offset="100%" stop-color="#E5E5E5"></stop>
        </linearGradient>
        <linearGradient id="linearGradient-6" y2="50%" x2="100%" y1="50%" x1="0%">
            <stop offset="0%" stop-color="#DFE1E6"></stop>
            <stop offset="28%" stop-color="#DADCE1"></stop>
            <stop offset="64%" stop-color="#CBCDD1"></stop>
            <stop offset="100%" stop-color="#B5B7BA"></stop>
        </linearGradient>
        <linearGradient id="linearGradient-7" y2="50%" x2="100%" y1="50%" x1="-0.193050193%">
            <stop offset="0%" stop-color="#A3A5AB"></stop>
            <stop offset="1%" stop-color="#A4A6AC"></stop>
            <stop offset="19%" stop-color="#B7B8BF"></stop>
            <stop offset="39%" stop-color="#C2C3CA"></stop>
            <stop offset="59%" stop-color="#C6C7CE"></stop>
            <stop offset="100%" stop-color="#E5E5E5"></stop>
        </linearGradient>
        <linearGradient id="linearGradient-8" y2="50%" x2="100%" y1="50%" x1="0%">
            <stop offset="0%" stop-color="#A3A5AB"></stop>
            <stop offset="1%" stop-color="#A4A6AC"></stop>
            <stop offset="19%" stop-color="#B7B8BF"></stop>
            <stop offset="39%" stop-color="#C2C3CA"></stop>
            <stop offset="59%" stop-color="#C6C7CE"></stop>
            <stop offset="100%" stop-color="#E5E5E5"></stop>
        </linearGradient>
        <linearGradient id="linearGradient-9" y2="50%" x2="100%" y1="50%" x1="0%">
            <stop offset="27%" stop-color="#E5E5E5"></stop>
            <stop offset="89%" stop-color="#C6C7CE"></stop>
            <stop offset="89%" stop-color="#C6C7CE"></stop>
            <stop offset="100%" stop-color="#E5E5E5"></stop>
        </linearGradient>
        <linearGradient id="linearGradient-10" y2="-418.860097%" x2="6863.53228%" y1="-418.860097%" x1="6672.98417%">
            <stop offset="0%" stop-color="#FFFFFF"></stop>
            <stop offset="2%" stop-opacity="0.97" stop-color="#FFFFFF"></stop>
            <stop offset="30%" stop-opacity="0.63" stop-color="#FFFFFF"></stop>
            <stop offset="55%" stop-opacity="0.36" stop-color="#FFFFFF"></stop>
            <stop offset="76%" stop-opacity="0.17" stop-color="#FFFFFF"></stop>
            <stop offset="91%" stop-opacity="0.05" stop-color="#FFFFFF"></stop>
            <stop offset="100%" stop-opacity="0" stop-color="#FFFFFF"></stop>
        </linearGradient>
        <radialGradient id="radialGradient-11"
                        gradientTransform="translate(0.524339,0.076250),scale(1.000000,0.904032),translate(-0.524339,-0.076250)"
                        r="94.1585535%" fy="7.625%" fx="52.433936%" cy="7.625%" cx="52.433936%">
            <stop offset="0%" stop-color="#E5E5E5"></stop>
            <stop offset="36%" stop-color="#CECFD4"></stop>
            <stop offset="73%" stop-color="#BCBEC7"></stop>
            <stop offset="100%" stop-color="#B6B8C3"></stop>
        </radialGradient>
        <linearGradient id="linearGradient-12" y2="59.1411043%" x2="55.4877704%" y1="45.2426102%" x1="38.6676459%">
            <stop offset="0%" stop-color="#E9EBF0"></stop>
            <stop offset="100%" stop-color="#C4C6CC"></stop>
        </linearGradient>
        <linearGradient id="linearGradient-13" y2="99.9187322%" x2="49.9071495%" y1="0%" x1="49.9071495%">
            <stop offset="0%" stop-color="#FDB65B"></stop>
            <stop offset="100%" stop-color="#FD9357"></stop>
        </linearGradient>
    </defs>
    <g fill-rule="evenodd" fill="none" stroke-width="1" stroke="none" id="尽请期待">
        <g id="分组-copy-2">
            <mask fill="white" id="mask-2">
                <use xlink:href="#path-1"></use>
            </mask>
            <g fill-rule="nonzero" id="Mask"></g>
            <g mask="url(#mask-2)" id="分组-27-copy">
                <g transform="translate(9.000000, 3.000000)">
                    <ellipse ry="39.0525664" rx="39.282069" cy="65.529823" cx="55.52867" fill-rule="nonzero" fill="url(#linearGradient-3)"
                             id="椭圆形"></ellipse>
                    <ellipse ry="3.17787611" rx="3.19655172" cy="49.0300885" cx="3.4553202" fill-rule="nonzero"
                             fill="url(#linearGradient-4)" id="椭圆形"></ellipse>
                    <ellipse ry="2.80460177" rx="2.82108374" cy="17.200885" cx="25.4151232" fill-rule="nonzero"
                             fill="url(#linearGradient-5)" id="椭圆形"></ellipse>
                    <ellipse ry="5.04424779" rx="5.07389163" cy="55.0680531" cx="77.7066502" fill-rule="nonzero"
                             fill="url(#linearGradient-6)" id="椭圆形"></ellipse>
                    <ellipse ry="1.30646018" rx="1.31413793" cy="57.6809735" cx="29.2205419" fill-rule="nonzero"
                             fill="url(#linearGradient-7)" id="椭圆形"></ellipse>
                    <ellipse ry="1" rx="1" cy="40.0866372" cx="91.1372414" fill-rule="nonzero" fill="url(#linearGradient-8)"
                             id="椭圆形"></ellipse>
                    <ellipse ry="7.21831858" rx="7.26073892" cy="7.46044248" cx="91.2590148" fill-rule="nonzero"
                             fill="url(#linearGradient-9)" id="椭圆形"></ellipse>
                    <path fill-rule="nonzero" fill="#C4C6CC" id="路径"
                          d="M84.881133,13.9423009 C84.3808564,13.9505055 83.8819638,13.887659 83.3995567,13.7556637 C82.7922581,13.6099264 82.272581,13.2210766 81.9636453,12.6812389 C81.6744335,12.1263717 81.5222167,11.1679646 82.4710345,9.65469027 C82.9196164,8.9648416 83.4381744,8.32254391 84.0185714,7.73787611 L84.0997537,8.57522124 L84.2418227,9.28141593 C83.9704873,9.59692024 83.7260934,9.93437305 83.5111823,10.2902655 L83.5111823,10.2902655 C83.0037931,11.0872566 82.8617241,11.7379646 83.0646798,12.1263717 C83.2255319,12.3705444 83.4774298,12.5411245 83.7648768,12.600531 C85.5153695,13.1049558 89.1584236,12.1566372 92.6188177,10.2499115 C95.5210837,8.6559292 97.895665,6.66849558 98.9764039,4.92823009 C99.4837931,4.13123894 99.630936,3.48053097 99.4229064,3.09716814 C99.2346668,2.81621385 98.949508,2.61346263 98.6212315,2.52716814 C97.9524064,2.36271279 97.2513986,2.38013559 96.5916749,2.57761062 L95.3840887,1.56876106 C98.1036946,0.973539823 99.8541872,1.32663717 100.503645,2.57761062 C100.792857,3.12743363 100.945074,4.09088496 99.9962562,5.60415929 C98.8089655,7.51088496 96.2669458,9.63955752 93.1921675,11.3495575 C90.1173892,13.0595575 87.0629064,13.9423009 84.881133,13.9423009 Z"></path>
                    <g transform="translate(55.812808, 67.592920)" fill-rule="evenodd" fill="none" stroke-width="1" opacity="0.5" id="编组">
                        <path fill-rule="nonzero" fill="#FFFFFF" id="路径"
                              d="M16.7895074,4.3380531 C16.5695321,4.71832314 16.7012883,5.20387627 17.0837931,5.42256637 C17.4662979,5.64125647 17.9547045,5.51027004 18.1746798,5.13 C18.3169789,4.88400841 18.3164624,4.5812307 18.173325,4.3357203 C18.0301877,4.09020989 17.7661753,3.93926566 17.4807388,3.9397457 C17.1953024,3.94022803 16.9318064,4.09206151 16.7895074,4.3380531 L16.7895074,4.3380531 Z"></path>
                        <path fill-rule="nonzero" fill="#FFFFFF" id="路径"
                              d="M9.09241379,10.0531858 C8.92793907,10.3317541 8.94885705,10.6814696 9.14537998,10.9386966 C9.34190292,11.1959236 9.67516283,11.3097883 9.98922382,11.2270121 C10.3032848,11.1442359 10.5360324,10.8811901 10.5785615,10.5609568 C10.6210906,10.2407234 10.4649898,9.9266377 10.1833005,9.76566372 C9.80191086,9.54771508 9.31510221,9.67602195 9.09241379,10.0531858 L9.09241379,10.0531858 Z"></path>
                        <path fill-rule="nonzero" fill="#FFFFFF" id="路径"
                              d="M24.1923153,10.8249558 C23.9744165,11.204222 24.1065193,11.6872708 24.4875849,11.9046424 C24.8686505,12.122014 25.3547971,11.9916337 25.5741955,11.6132228 C25.7935939,11.234812 25.6634042,10.7512501 25.283202,10.5323894 C25.0996629,10.4267364 24.881322,10.3982078 24.6765555,10.4531244 C24.471789,10.508041 24.2975039,10.6418686 24.1923153,10.8249558 L24.1923153,10.8249558 Z"></path>
                        <path fill-rule="nonzero" fill="#FFFFFF" id="路径"
                              d="M32.5185714,7.61176991 C32.3813604,7.82599139 32.3733967,8.09777264 32.4978314,8.31957153 C32.6222662,8.54137041 32.8590466,8.67744381 33.1144801,8.67394831 C33.3699137,8.67045281 33.602837,8.52795173 33.7210837,8.30283186 L33.7210837,8.30283186 C33.8934215,7.97473271 33.7751293,7.56989847 33.4527941,7.38465833 C33.130459,7.1994182 32.7185485,7.29955455 32.5185714,7.61176991 L32.5185714,7.61176991 Z"></path>
                        <path fill-rule="nonzero" fill="#FFFFFF" id="路径"
                              d="M16.6474384,0.650707965 C16.5494045,0.818755464 16.5631218,1.02901661 16.6821691,1.18306689 C16.8012165,1.33711716 17.0020368,1.40447296 17.1906247,1.35360463 C17.3792127,1.30273629 17.5182504,1.14370969 17.5426535,0.950966139 C17.5670566,0.758222594 17.4719961,0.569902361 17.3019704,0.474159292 C17.0720033,0.34466259 16.7800336,0.423416348 16.6474384,0.650707965 L16.6474384,0.650707965 Z"></path>
                        <path fill-rule="nonzero" fill="#FFFFFF" id="路径"
                              d="M14.1003448,9.60929204 C13.9709488,9.83661086 14.0508377,10.1251556 14.2790174,10.2546266 C14.507197,10.3840976 14.7977279,10.3057319 14.9287939,10.0793606 C15.0598598,9.85298938 14.9820973,9.56387108 14.7548768,9.43274336 C14.644694,9.36915742 14.5135018,9.35203906 14.3905457,9.38520433 C14.2675896,9.4183696 14.163091,9.49906147 14.1003448,9.60929204 L14.1003448,9.60929204 Z"></path>
                        <path fill-rule="nonzero" fill="#FFFFFF" id="路径"
                              d="M9.59980296,3.24345133 C9.4747248,3.45700446 9.4737466,3.72067424 9.59723682,3.93513881 C9.72072705,4.14960338 9.9499246,4.28228048 10.198493,4.28319664 C10.4470614,4.28410335 10.6772371,4.15311066 10.8023153,3.93955752 L10.8023153,3.93955752 C10.9395263,3.72533605 10.94749,3.45355479 10.8230553,3.23175591 C10.6986205,3.00995702 10.4618401,2.87388363 10.2064066,2.87737912 C9.95097301,2.88087462 9.71804971,3.0233757 9.59980296,3.24849558 L9.59980296,3.24345133 Z"></path>
                        <path fill-rule="nonzero" fill="#FFFFFF" id="路径"
                              d="M0.451576355,12.6509735 C0.314365364,12.8651949 0.306401638,13.1369762 0.430836374,13.3587751 C0.555271109,13.580574 0.792051518,13.7166473 1.04748507,13.7131518 C1.30291861,13.7096564 1.53584191,13.5671553 1.65408867,13.3420354 L1.65408867,13.3420354 C1.82642645,13.0139362 1.70813419,12.609102 1.38579907,12.4238619 C1.06346394,12.2386217 0.651553408,12.3387581 0.451576355,12.6509735 L0.451576355,12.6509735 Z"></path>
                    </g>
                    <path fill-rule="nonzero" fill="url(#linearGradient-10)" id="路径"
                          d="M46.2992611,83.7143363 C46.2992611,83.7143363 56.1629064,89.1621239 67.1275862,85.1670796 L57.4871921,47.1788496 L54.7523645,47.1788496 L46.2992611,83.7143363 Z"></path>
                    <path fill-rule="nonzero" fill="url(#radialGradient-11)" id="路径"
                          d="M54.3007882,47.6076106 C54.3007882,47.6076106 54.3007882,50.830885 56.3303448,51.6430088 C56.3303448,51.6430088 57.9489163,51.0225664 57.9489163,47.6076106 L54.3007882,47.6076106 Z"></path>
                    <path fill-rule="nonzero" fill="url(#linearGradient-12)" id="路径"
                          d="M65.0878818,40.7222124 C63.0836946,38.0638938 64.423202,33.4080531 64.423202,33.4080531 C65.6764532,12.8426549 56.9442857,7.46044248 55.8381773,6.86522124 L55.8381773,6.80469027 L55.7823645,6.80469027 L55.7316256,6.80469027 L55.7316256,6.86522124 C54.6255172,7.46044248 45.8984236,12.8426549 47.1516749,33.4080531 C47.1516749,33.4080531 48.4861084,38.0638938 46.4819212,40.7222124 C44.477734,43.380531 45.1424138,52.0263717 45.1424138,52.0263717 C47.38369,51.4450569 49.3058674,50.0122994 50.4953695,48.0363717 L61.0896552,48.0363717 C62.2791573,50.0122994 64.2013346,51.4450569 66.4426108,52.0263717 C66.4426108,52.0263717 67.0971429,43.3754867 65.0878818,40.7222124 Z"></path>
                    <path fill-rule="nonzero" fill="#FFFFFF" id="路径"
                          d="M51.6725123,13.089823 C51.1372062,14.1746527 50.7237276,15.3148025 50.4395567,16.489646 C50.1316417,17.6579109 49.896109,18.8438553 49.7342857,20.0407965 C49.5617734,21.2413274 49.485665,22.4519469 49.4247783,23.6625664 C49.3994089,24.2678761 49.4247783,24.8782301 49.3892611,25.4835398 L49.4197044,27.299469 L49.4197044,27.299469 C49.4197044,27.5780551 49.1925386,27.8038938 48.9123153,27.8038938 C48.632092,27.8038938 48.4049261,27.5780551 48.4049261,27.299469 L48.4049261,27.299469 L48.4607389,25.4431858 C48.50133,24.8277876 48.5317734,24.2123894 48.5825123,23.5969912 C48.7042857,22.3661947 48.8362069,21.1353982 49.0899015,19.9197345 C49.3059426,18.7033875 49.5939633,17.5007681 49.9524631,16.3181416 C50.3040628,15.1246064 50.7855465,13.9727523 51.3883744,12.8830088 C51.431809,12.8036118 51.531762,12.7742528 51.6116256,12.8174336 C51.6914893,12.8606145 51.7210208,12.9599835 51.6775862,13.0393805 L51.6725123,13.089823 Z"></path>
                    <ellipse ry="1" rx="1" cy="29.2616814" cx="48.9173892" fill-rule="nonzero" fill="#FFFFFF" id="椭圆形"></ellipse>
                    <g transform="translate(15.221675, 71.628319)" fill-rule="evenodd" fill="none" stroke-width="1" id="编组">
                        <ellipse ry="12.2020354" rx="12.2737438" cy="13.2613274" cx="12.2788177" fill-rule="nonzero" fill="#FFFFFF"
                                 id="椭圆形"></ellipse>
                        <ellipse ry="9.9220354" rx="9.98034483" cy="26.1241593" cx="59.9784729" fill-rule="nonzero" fill="#FFFFFF"
                                 id="椭圆形"></ellipse>
                        <path opacity="0.05" fill-rule="nonzero" fill="#060000" id="路径"
                              d="M59.5573399,16.2122033 C54.3198046,16.3725405 50.1288346,20.5878338 50.0285714,25.7962832 L52.1697537,25.7962832 C52.387931,18.300531 59.7958128,16.2071681 59.5573399,16.2122033 Z"></path>
                        <path opacity="0.05" fill-rule="nonzero" fill="#060000" id="路径"
                              d="M2.3644335,13.2562832 C2.36402681,6.97306801 7.1649788,1.7176348 13.4559606,1.11477876 C13.0632107,1.07423547 12.6686053,1.05424606 12.2737438,1.05424606 C5.49514229,1.05424606 -8.52651283e-14,6.51728512 -8.52651283e-14,13.2562832 C-8.52651283e-14,19.9952813 5.49514229,25.4583186 12.2737438,25.4583186 C12.6745813,25.4583186 13.0652709,25.4583186 13.4559606,25.4028319 C7.16304339,24.7997911 2.36141216,19.5414306 2.3644335,13.2562832 L2.3644335,13.2562832 Z"></path>
                        <ellipse ry="10.2347788" rx="10.2949261" cy="25.8467257" cx="20.69133" fill-rule="nonzero" fill="#FFFFFF"
                                 id="椭圆形"></ellipse>
                        <path opacity="0.05" fill-rule="nonzero" fill="#060000" id="路径"
                              d="M12.3752217,25.8416814 C12.37681,20.5713443 16.4039685,16.1638583 21.6807389,15.6573451 C21.3560099,15.6270796 21.0262069,15.6069027 20.6659606,15.6069027 C14.9802299,15.6069027 10.3710345,20.1891692 10.3710345,25.8416814 C10.3710345,31.4941936 14.9802299,36.0764602 20.6659606,36.0764602 C21.00422,36.0764602 21.3424795,36.0613274 21.6807389,36.0310619 C16.4020339,35.5243629 12.3741968,31.1139509 12.3752217,25.8416814 L12.3752217,25.8416814 Z"></path>
                        <ellipse ry="12.2020354" rx="12.2737438" cy="30.109115" cx="39.5256158" fill-rule="nonzero" fill="#FFFFFF"
                                 id="椭圆形"></ellipse>
                        <path opacity="0.05" fill-rule="nonzero" fill="#060000" id="路径"
                              d="M29.6112315,30.129292 C29.6134502,23.8452336 34.4159819,18.590475 40.7078325,17.9877876 C40.3150826,17.9472443 39.9204772,17.9272549 39.5256158,17.9272549 C32.7470142,17.9272549 27.2518719,23.390294 27.2518719,30.129292 C27.2518719,36.8682901 32.7470142,42.3313274 39.5256158,42.3313274 C39.9264532,42.3313274 40.3171429,42.3313274 40.7078325,42.2758407 C34.4140474,41.6729677 29.6108369,36.4152829 29.6112315,30.129292 Z"></path>
                        <ellipse ry="12.2020354" rx="12.2737438" cy="12.4038053" cx="75.144335" fill-rule="nonzero" fill="#FFFFFF"
                                 id="椭圆形"></ellipse>
                        <path opacity="0.05" fill-rule="nonzero" fill="#060000" id="路径"
                              d="M65.2350246,12.4038053 C65.2346179,6.12059013 70.0355699,0.86515692 76.3265517,0.262300885 C75.9338019,0.221757596 75.5391964,0.201768188 75.144335,0.201768188 C68.3657334,0.201768188 62.8705911,5.66480724 62.8705911,12.4038053 C62.8705911,19.1428034 68.3657334,24.6058407 75.144335,24.6058407 C75.5451724,24.6058407 75.9358621,24.6058407 76.3265517,24.550354 C70.0336345,23.9473132 65.2320033,18.6889527 65.2350246,12.4038053 L65.2350246,12.4038053 Z"></path>
                    </g>
                    <path fill-rule="nonzero" fill="#333333" id="路径"
                          d="M18.1848276,102.009823 C16.96626,102.534329 15.9139824,103.378207 15.1404926,104.451239 C15.1404926,104.451239 15.0542365,105.510531 17.51,104.849735 C18.4100579,104.525552 19.2630877,104.084568 20.0469458,103.53823 L20.0469458,102.024956 L18.1848276,102.009823 Z"></path>
                    <path fill-rule="nonzero" fill="#333333" id="路径"
                          d="M15.8356158,100.481416 C14.6170482,101.005922 13.5647706,101.8498 12.7912808,102.922832 C12.7912808,102.922832 12.7050246,103.982124 15.1607882,103.321327 C16.060396,102.996126 16.9132954,102.55521 17.697734,102.009823 L17.697734,100.496549 L15.8356158,100.481416 Z"></path>
                    <path fill-rule="nonzero" fill="#FCD9CB" id="路径"
                          d="M21.6198522,80.1329204 C21.6198522,80.1329204 20.4630049,80.9248673 20.6355172,82.9123009 C20.6564292,83.3737022 20.8625732,83.8074983 21.2078008,84.1165775 C21.5530283,84.4256566 22.0085052,84.5842037 22.472266,84.5567257 L22.472266,85.8682301 L24.5931527,85.6160177 L24.5931527,83.7042478 L25.9529557,81.9084956 L23.9995074,79.2047788 L21.6198522,80.1329204 Z"></path>
                    <path fill-rule="nonzero" fill="#666666" id="路径"
                          d="M22.2084236,79.2602655 C22.2084236,79.2602655 24.9686207,78.1606195 25.9428079,80.0169027 C25.9428079,80.0169027 27.1351724,82.7206195 24.7961084,83.7748673 C24.7961084,83.7748673 23.9893596,83.9463717 24.7098522,83.3107965 C25.0234777,83.0549447 25.2012463,82.6698594 25.1918719,82.2666372 C25.1918719,82.2666372 25.1106897,81.7269027 24.3394581,81.8580531 C24.3394581,81.8580531 24.5018227,79.6789381 22.4063054,79.9967257 C22.4063054,79.9967257 21.2596059,80.5263717 20.6152217,79.9361947 C20.6152217,79.9361947 20.2752709,79.5780531 20.5391133,79.3762832 C20.5391133,79.3762832 20.7522167,79.270354 20.7826601,79.5528319 C20.7826601,79.5629204 20.8536946,79.8100885 22.2084236,79.2602655 Z"></path>
                    <path fill-rule="nonzero" fill="url(#linearGradient-13)" id="路径"
                          d="M24.907734,84.7030088 C24.5775853,85.1774255 24.0589629,85.4886608 23.4829015,85.5580785 C22.90684,85.6274962 22.3284411,85.4484562 21.8938424,85.0661947 C20.7799511,85.3730879 19.8400089,86.1180982 19.290936,87.129292 L19.4634483,89.4395575 L27.3026108,97.1169027 L30.2200985,96.819292 C30.2200985,96.819292 29.8852217,90.8418584 28.4594581,87.7699115 C28.4493103,87.759823 27.0844335,85.1721239 24.907734,84.7030088 Z"></path>
                    <path fill-rule="nonzero" fill="#666666" id="路径"
                          d="M20.8435468,90.9326549 C20.8435468,90.9326549 19.0524631,86.9577876 16.8605419,90.4635398 C16.8605419,90.4635398 14.9375369,93.439646 15.8000985,100.834513 C16.3729358,101.170677 17.0843056,101.170677 17.6571429,100.834513 L20.8435468,90.9326549 Z"></path>
                    <path fill-rule="nonzero" fill="#666666" id="路径"
                          d="M27.5867488,96.940354 C27.5867488,96.940354 26.3284236,89.6110619 22.2794581,89.8128319 C22.2794581,89.8128319 17.0279803,90.140708 17.7129557,101.823186 C18.3529946,102.508661 19.3616463,102.711648 20.2194581,102.327611 C20.2194581,102.327611 20.457931,96.1383186 22.8274384,97.7171681 C23.5481706,98.4757724 24.3379937,99.1664182 25.186798,99.7802655 C27.0387685,100.975752 29.6416749,101.106903 29.7228571,96.7839823 L27.5867488,96.940354 Z"></path>
                    <path fill-rule="nonzero" fill="#FCD9CB" id="路径"
                          d="M25.6738916,90.569469 L22.8883251,94.3375221 C22.8883251,94.3375221 21.8278818,94.3375221 19.1082759,92.2492035 C19.1082759,92.2492035 17.3273399,91.1697345 19.8135468,89.5000885 L19.290936,87.129292 C18.0215062,87.9665973 17.0224748,89.1507235 16.4140394,90.5392035 C15.9542941,91.5301172 16.1877078,92.7025802 16.9924631,93.4446903 C18.4988442,94.9611395 20.3717447,96.0675456 22.4316749,96.6578761 C23.1984685,97.0749442 24.1598243,96.811446 24.6033005,96.0626549 L27.4142365,92.3702655 L25.6738916,90.569469 Z"></path>
                </g>
            </g>
        </g>
    </g>
</svg>